<svg width="187" height="240" viewBox="0 0 187 240" fill="none" xmlns="http://www.w3.org/2000/svg">
<path d="M37.4 103.125C37.4 97.7553 41.1639 93.2497 45.6716 90.3327C53.8226 85.0583 59.2167 75.8864 59.2167 65.4546C59.2167 49.1013 45.9606 35.8442 29.6084 35.8442C13.2562 35.8442 7.62886e-05 49.1013 7.62886e-05 65.4546C7.62886e-05 75.8864 5.39414 85.0582 13.5451 90.3327C18.0528 93.2496 21.8167 97.7552 21.8167 103.125V124.408C21.8167 129.777 18.0528 134.283 13.545 137.2C5.39408 142.474 0 151.646 0 162.078C0 178.431 13.2561 191.688 29.6083 191.688C45.9605 191.688 59.2166 178.431 59.2166 162.078C59.2166 151.646 53.8226 142.474 45.6716 137.2C41.1639 134.283 37.4 129.777 37.4 124.408V103.125Z" fill="url(#paint0_linear_49_6915)"/>
<path d="M165.183 103.125C165.183 97.7553 168.947 93.2497 173.455 90.3327C181.606 85.0583 187 75.8864 187 65.4546C187 49.1013 173.744 35.8442 157.391 35.8442C141.039 35.8442 127.783 49.1013 127.783 65.4546C127.783 75.8864 133.177 85.0582 141.328 90.3327C145.836 93.2496 149.6 97.7552 149.6 103.125V124.408C149.6 129.777 145.836 134.283 141.328 137.2C133.177 142.474 127.783 151.646 127.783 162.078C127.783 178.431 141.039 191.688 157.391 191.688C173.744 191.688 187 178.431 187 162.078C187 151.646 181.606 142.474 173.455 137.2C168.947 134.283 165.183 129.777 165.183 124.408V103.125Z" fill="url(#paint1_linear_49_6915)"/>
<path d="M93.4995 59.2208C109.852 59.2208 123.108 45.9638 123.108 29.6104C123.108 13.257 109.852 0 93.4995 0C77.1473 0 63.8912 13.257 63.8912 29.6104C63.8912 45.9638 77.1473 59.2208 93.4995 59.2208Z" fill="url(#paint2_linear_49_6915)"/>
<path d="M109.563 138.644C105.055 141.561 101.291 146.067 101.291 151.436V172.72C101.291 178.089 105.055 182.595 109.563 185.512C117.714 190.786 123.108 199.958 123.108 210.39C123.108 226.743 109.852 240 93.4994 240C77.1471 240 63.891 226.743 63.891 210.39C63.891 199.958 69.2851 190.786 77.4361 185.512C81.9438 182.595 85.7077 178.089 85.7077 172.72V151.436C85.7077 146.067 81.9438 141.561 77.4361 138.644C69.2852 133.37 63.8911 124.198 63.8911 113.766C63.8911 97.4129 77.1472 84.1558 93.4994 84.1558C109.852 84.1558 123.108 97.4129 123.108 113.766C123.108 124.198 117.714 133.37 109.563 138.644Z" fill="url(#paint3_linear_49_6915)"/>
<defs>
<linearGradient id="paint0_linear_49_6915" x1="140.25" y1="-7.45343" x2="140.25" y2="222.112" gradientUnits="userSpaceOnUse">
<stop stop-color="#00E1FA"/>
<stop offset="1" stop-color="#00498A"/>
</linearGradient>
<linearGradient id="paint1_linear_49_6915" x1="140.25" y1="-7.45343" x2="140.25" y2="222.112" gradientUnits="userSpaceOnUse">
<stop stop-color="#00E1FA"/>
<stop offset="1" stop-color="#00498A"/>
</linearGradient>
<linearGradient id="paint2_linear_49_6915" x1="140.25" y1="-7.45343" x2="140.25" y2="222.112" gradientUnits="userSpaceOnUse">
<stop stop-color="#00E1FA"/>
<stop offset="1" stop-color="#00498A"/>
</linearGradient>
<linearGradient id="paint3_linear_49_6915" x1="140.25" y1="-7.45343" x2="140.25" y2="222.112" gradientUnits="userSpaceOnUse">
<stop stop-color="#00E1FA"/>
<stop offset="1" stop-color="#00498A"/>
</linearGradient>
</defs>
</svg>
