<svg xmlns="http://www.w3.org/2000/svg" width="30" height="28" viewBox="0 0 30 28" fill="none">
<path d="M18.8305 27.5086C22.1835 25.1882 24.6345 21.6485 25.5428 17.5365C25.9223 16.423 26.1275 15.2348 26.1275 13.9969C26.1275 12.7589 25.9223 11.5708 25.5428 10.4572C24.479 7.35303 22.0653 4.87092 19.0047 3.72006C17.8103 3.27216 16.5101 3.02333 15.1602 3.02333H8.67808V22.5381H5.64853V0H15.1664C16.4355 0 17.6672 0.167963 18.8367 0.491446C24.7838 2.10886 29.1633 7.5521 29.1633 14.0031C29.1633 20.4541 24.7776 25.8974 18.8367 27.5148L18.8305 27.5086Z" fill="#005486"/>
<path d="M23.21 11.1291C22.5816 9.37481 21.3686 7.85692 19.8196 6.84292L21.0078 5.56143H16.5039L17.4059 9.44946L18.7061 8.04977C19.8196 9.76672 20.479 11.8072 20.479 14.0031C20.479 17.3935 18.93 20.4292 16.5101 22.4448C14.6065 24.0249 12.168 24.9767 9.51166 24.9767H3.02955V0H0V28H9.51788C13.182 28 16.5226 26.5879 19.0171 24.2737C19.1353 24.168 19.2473 24.056 19.3593 23.944C20.6656 22.6501 21.717 21.1073 22.4386 19.3841C22.4883 19.2659 22.5319 19.154 22.5754 19.0358C22.6625 18.8118 22.7434 18.5879 22.818 18.3577C22.8554 18.2457 22.8927 18.1275 22.9238 18.0156C22.9425 17.9596 22.9611 17.8974 22.9736 17.8414C23.0047 17.7294 23.0358 17.6236 23.0607 17.5117C23.0793 17.4432 23.0918 17.381 23.1104 17.3126C23.1353 17.2131 23.1602 17.1135 23.1788 17.014L23.21 16.8834C23.4028 15.9502 23.5086 14.986 23.5086 13.9969C23.5086 13.0078 23.409 12.056 23.21 11.1291Z" fill="url(#paint0_linear_19775_386)"/>
<defs>
<linearGradient id="paint0_linear_19775_386" x1="-0.0124417" y1="14.0031" x2="23.5023" y2="14.0031" gradientUnits="userSpaceOnUse">
<stop stop-color="#1C75BC"/>
<stop offset="1" stop-color="#00B6BE"/>
</linearGradient>
</defs>
</svg>
