<svg xmlns="http://www.w3.org/2000/svg" width="66" height="11" viewBox="0 0 66 11" fill="none">
  <path d="M0 10.1818V0H4.01705C4.78598 0 5.44223 0.137547 5.9858 0.412642C6.53267 0.684422 6.94863 1.07055 7.23366 1.57102C7.52202 2.06818 7.66619 2.65317 7.66619 3.32599C7.66619 4.00213 7.52036 4.58381 7.22869 5.07102C6.93703 5.55492 6.51444 5.92614 5.96094 6.18466C5.41075 6.44318 4.74455 6.57244 3.96236 6.57244H1.27273V4.84233H3.61435C4.02533 4.84233 4.36671 4.78598 4.63849 4.6733C4.91027 4.56061 5.11245 4.39157 5.24503 4.16619C5.38092 3.94081 5.44886 3.66075 5.44886 3.32599C5.44886 2.98793 5.38092 2.70289 5.24503 2.47088C5.11245 2.23887 4.90862 2.06321 4.63352 1.94389C4.36174 1.82126 4.0187 1.75994 3.6044 1.75994H2.1527V10.1818H0ZM5.49858 5.5483L8.02912 10.1818H5.6527L3.17685 5.5483H5.49858Z" fill="#0075A2"/>
  <path d="M11.5025 10.1818H9.19565L12.7106 0H15.4847L18.9947 10.1818H16.6878L14.1374 2.3267H14.0579L11.5025 10.1818ZM11.3583 6.17969H16.8072V7.86009H11.3583V6.17969Z" fill="#0075A2"/>
  <path d="M24.3895 10.1818H20.7802V0H24.4194C25.4435 0 26.3251 0.203835 27.0642 0.611506C27.8034 1.01586 28.3718 1.59754 28.7695 2.35653C29.1705 3.11553 29.3711 4.02367 29.3711 5.08097C29.3711 6.14157 29.1705 7.05303 28.7695 7.81534C28.3718 8.57765 27.8 9.16264 27.0543 9.57031C26.3119 9.97798 25.4236 10.1818 24.3895 10.1818ZM22.9329 8.33736H24.3C24.9364 8.33736 25.4717 8.22467 25.9059 7.99929C26.3434 7.7706 26.6715 7.41761 26.8902 6.94034C27.1123 6.45975 27.2233 5.83996 27.2233 5.08097C27.2233 4.3286 27.1123 3.71378 26.8902 3.23651C26.6715 2.75923 26.345 2.40791 25.9108 2.18253C25.4767 1.95715 24.9414 1.84446 24.305 1.84446H22.9329V8.33736Z" fill="#0075A2"/>
  <path d="M33.6784 0V10.1818H31.5257V0H33.6784Z" fill="#0075A2"/>
  <path d="M37.7645 10.1818H35.4577L38.9726 0H41.7467L45.2567 10.1818H42.9499L40.3994 2.3267H40.3199L37.7645 10.1818ZM37.6203 6.17969H43.0692V7.86009H37.6203V6.17969Z" fill="#0075A2"/>
  <path d="M55.5585 0V10.1818H53.6991L49.2695 3.77344H49.1949V10.1818H47.0422V0H48.9314L53.3263 6.40341H53.4158V0H55.5585Z" fill="#0075A2"/>
  <path d="M57.5093 1.77486V0H65.8715V1.77486H62.7544V10.1818H60.6265V1.77486H57.5093Z" fill="#0075A2"/>
</svg>