<svg xmlns="http://www.w3.org/2000/svg" width="104" height="28" viewBox="0 0 104 28" fill="none">
  <!-- Icon -->
  <path d="M18.8305 27.5086C22.1835 25.1882 24.6345 21.6485 25.5428 17.5365C25.9223 16.423 26.1275 15.2348 26.1275 13.9969C26.1275 12.7589 25.9223 11.5708 25.5428 10.4572C24.479 7.35303 22.0653 4.87092 19.0047 3.72006C17.8103 3.27216 16.5101 3.02333 15.1602 3.02333H8.67808V22.5381H5.64853V0H15.1664C16.4355 0 17.6672 0.167963 18.8367 0.491446C24.7838 2.10886 29.1633 7.5521 29.1633 14.0031C29.1633 20.4541 24.7776 25.8974 18.8367 27.5148L18.8305 27.5086Z" fill="#005486"/>
  <path d="M23.21 11.1291C22.5816 9.37481 21.3686 7.85692 19.8196 6.84292L21.0078 5.56143H16.5039L17.4059 9.44946L18.7061 8.04977C19.8196 9.76672 20.479 11.8072 20.479 14.0031C20.479 17.3935 18.93 20.4292 16.5101 22.4448C14.6065 24.0249 12.168 24.9767 9.51166 24.9767H3.02955V0H0V28H9.51788C13.182 28 16.5226 26.5879 19.0171 24.2737C19.1353 24.168 19.2473 24.056 19.3593 23.944C20.6656 22.6501 21.717 21.1073 22.4386 19.3841C22.4883 19.2659 22.5319 19.154 22.5754 19.0358C22.6625 18.8118 22.7434 18.5879 22.818 18.3577C22.8554 18.2457 22.8927 18.1275 22.9238 18.0156C22.9425 17.9596 22.9611 17.8974 22.9736 17.8414C23.0047 17.7294 23.0358 17.6236 23.0607 17.5117C23.0793 17.4432 23.0918 17.381 23.1104 17.3126C23.1353 17.2131 23.1602 17.1135 23.1788 17.014L23.21 16.8834C23.4028 15.9502 23.5086 14.986 23.5086 13.9969C23.5086 13.0078 23.409 12.056 23.21 11.1291Z" fill="url(#paint0_linear_19775_386)"/>
  <!-- Wordmark -->
  <g transform="translate(38 8.5)">
    <path d="M0 10.1818V0H4.01705C4.78598 0 5.44223 0.137547 5.9858 0.412642C6.53267 0.684422 6.94863 1.07055 7.23366 1.57102C7.52202 2.06818 7.66619 2.65317 7.66619 3.32599C7.66619 4.00213 7.52036 4.58381 7.22869 5.07102C6.93703 5.55492 6.51444 5.92614 5.96094 6.18466C5.41075 6.44318 4.74455 6.57244 3.96236 6.57244H1.27273V4.84233H3.61435C4.02533 4.84233 4.36671 4.78598 4.63849 4.6733C4.91027 4.56061 5.11245 4.39157 5.24503 4.16619C5.38092 3.94081 5.44886 3.66075 5.44886 3.32599C5.44886 2.98793 5.38092 2.70289 5.24503 2.47088C5.11245 2.23887 4.90862 2.06321 4.63352 1.94389C4.36174 1.82126 4.0187 1.75994 3.6044 1.75994H2.1527V10.1818H0ZM5.49858 5.5483L8.02912 10.1818H5.6527L3.17685 5.5483H5.49858Z" fill="#0075A2"/>
    <path d="M11.5025 10.1818H9.19565L12.7106 0H15.4847L18.9947 10.1818H16.6878L14.1374 2.3267H14.0579L11.5025 10.1818ZM11.3583 6.17969H16.8072V7.86009H11.3583V6.17969Z" fill="#0075A2"/>
    <path d="M24.3895 10.1818H20.7802V0H24.4194C25.4435 0 26.3251 0.203835 27.0642 0.611506C27.8034 1.01586 28.3718 1.59754 28.7695 2.35653C29.1705 3.11553 29.3711 4.02367 29.3711 5.08097C29.3711 6.14157 29.1705 7.05303 28.7695 7.81534C28.3718 8.57765 27.8 9.16264 27.0543 9.57031C26.3119 9.97798 25.4236 10.1818 24.3895 10.1818ZM22.9329 8.33736H24.3C24.9364 8.33736 25.4717 8.22467 25.9059 7.99929C26.3434 7.7706 26.6715 7.41761 26.8902 6.94034C27.1123 6.45975 27.2233 5.83996 27.2233 5.08097C27.2233 4.3286 27.1123 3.71378 26.8902 3.23651C26.6715 2.75923 26.345 2.40791 25.9108 2.18253C25.4767 1.95715 24.9414 1.84446 24.305 1.84446H22.9329V8.33736Z" fill="#0075A2"/>
    <path d="M33.6784 0V10.1818H31.5257V0H33.6784Z" fill="#0075A2"/>
    <path d="M37.7645 10.1818H35.4577L38.9726 0H41.7467L45.2567 10.1818H42.9499L40.3994 2.3267H40.3199L37.7645 10.1818ZM37.6203 6.17969H43.0692V7.86009H37.6203V6.17969Z" fill="#0075A2"/>
    <path d="M55.5585 0V10.1818H53.6991L49.2695 3.77344H49.1949V10.1818H47.0422V0H48.9314L53.3263 6.40341H53.4158V0H55.5585Z" fill="#0075A2"/>
    <path d="M57.5093 1.77486V0H65.8715V1.77486H62.7544V10.1818H60.6265V1.77486H57.5093Z" fill="#0075A2"/>
  </g>
  <defs>
    <linearGradient id="paint0_linear_19775_386" x1="-0.0124417" y1="14.0031" x2="23.5023" y2="14.0031" gradientUnits="userSpaceOnUse">
      <stop stop-color="#1C75BC"/>
      <stop offset="1" stop-color="#00B6BE"/>
    </linearGradient>
  </defs>
</svg>
